<svg
        xmlns="http://www.w3.org/2000/svg"
        xmlns:xlink="http://www.w3.org/1999/xlink"
        width="1954px" height="511px">
    <path fill-rule="evenodd"  fill="rgb(167, 42, 45)"
          d="M255.500,-0.002 C396.609,-0.002 510.1000,114.390 510.1000,255.498 C510.1000,396.605 396.609,510.998 255.500,510.998 C114.391,510.998 -0.000,396.605 -0.000,255.498 C-0.000,114.390 114.391,-0.002 255.500,-0.002 Z"/>
    <path fill-rule="evenodd"  fill="rgb(167, 42, 45)"
          d="M616.500,-0.002 C757.609,-0.002 871.1000,114.390 871.1000,255.498 C871.1000,396.605 757.609,510.998 616.500,510.998 C475.391,510.998 360.1000,396.605 360.1000,255.498 C360.1000,114.390 475.391,-0.002 616.500,-0.002 Z"/>
    <path fill-rule="evenodd"  fill="rgb(167, 42, 45)"
          d="M977.500,-0.002 C1118.609,-0.002 1232.1000,114.390 1232.1000,255.498 C1232.1000,396.605 1118.609,510.998 977.500,510.998 C836.391,510.998 721.1000,396.605 721.1000,255.498 C721.1000,114.390 836.391,-0.002 977.500,-0.002 Z"/>
    <path fill-rule="evenodd"  fill="rgb(167, 42, 45)"
          d="M1337.500,-0.002 C1478.609,-0.002 1592.1000,114.390 1592.1000,255.498 C1592.1000,396.605 1478.609,510.998 1337.500,510.998 C1196.391,510.998 1081.1000,396.605 1081.1000,255.498 C1081.1000,114.390 1196.391,-0.002 1337.500,-0.002 Z"/>
    <path fill-rule="evenodd"  fill="rgb(167, 42, 45)"
          d="M1698.500,-0.002 C1839.609,-0.002 1953.1000,114.390 1953.1000,255.498 C1953.1000,396.605 1839.609,510.998 1698.500,510.998 C1557.391,510.998 1442.1000,396.605 1442.1000,255.498 C1442.1000,114.390 1557.391,-0.002 1698.500,-0.002 Z"/>
</svg>